HIERARCHY
ROOT Hips
{
	OFFSET 0.000000 0.000000 0.000000
	CHANNELS 6 Xposition Yposition Zposition Xrotation Yrotation Zrotation
	JOINT LeftUpLeg_virtual
	{
		OFFSET 0.000000 0.000000 0.000000
		CHANNELS 3 Xrotation Yrotation Zrotation
		JOINT LeftUpLeg
		{
			OFFSET 10.205400 -3.823500 0.155100
			CHANNELS 3 Xrotation Yrotation Zrotation
			JOINT LeftLeg
			{
				OFFSET 0.708757 -12.982077 0.567790
				CHANNELS 3 Xrotation Yrotation Zrotation
				JOINT LeftFoot
				{
					OFFSET -0.708756 -10.717838 -2.184338
					CHANNELS 3 Xrotation Yrotation Zrotation
					JOINT LeftToeBase
					{
						OFFSET 0.108149 -7.191104 7.560241
						CHANNELS 3 Xrotation Yrotation Zrotation
						JOINT LeftToe_End
						{
							OFFSET 0.070230 0.081724 4.490308
							CHANNELS 3 Xrotation Yrotation Zrotation
							End Site
							{
								OFFSET 0 0 0
							}
						}
					}
				}
			}
		}
	}
	JOINT RightUpLeg_virtual
	{
		OFFSET 0.000000 0.000000 0.000000
		CHANNELS 3 Xrotation Yrotation Zrotation
		JOINT RightUpLeg
		{
			OFFSET -10.205400 -3.823500 0.005500
			CHANNELS 3 Xrotation Yrotation Zrotation
			JOINT RightLeg
			{
				OFFSET -0.708756 -12.982134 0.610632
				CHANNELS 3 Xrotation Yrotation Zrotation
				JOINT RightFoot
				{
					OFFSET 0.708754 -10.717769 -1.945823
					CHANNELS 3 Xrotation Yrotation Zrotation
					JOINT RightToeBase
					{
						OFFSET -0.108140 -7.191069 7.372968
						CHANNELS 3 Xrotation Yrotation Zrotation
						JOINT RightToe_End
						{
							OFFSET -0.070227 0.081735 4.479403
							CHANNELS 3 Xrotation Yrotation Zrotation
							End Site
							{
								OFFSET 0 0 0
							}
						}
					}
				}
			}
		}
	}
	JOINT Spine_virtual
	{
		OFFSET 0.000000 0.000000 0.000000
		CHANNELS 3 Xrotation Yrotation Zrotation
		JOINT Spine
		{
			OFFSET 0.000000 6.876099 0.125700
			CHANNELS 3 Xrotation Yrotation Zrotation
			JOINT Spine1
			{
				OFFSET 0.000000 5.730043 0.104720
				CHANNELS 3 Xrotation Yrotation Zrotation
				JOINT Spine1_split
				{
					OFFSET 0.000000 5.730043 0.104720
					CHANNELS 3 Xrotation Yrotation Zrotation
					JOINT Spine2
					{
						OFFSET 0.000000 5.730043 0.104720
						CHANNELS 3 Xrotation Yrotation Zrotation
						JOINT Neck_virtual
						{
							OFFSET 0.000000 0.000000 0.000000
							CHANNELS 3 Xrotation Yrotation Zrotation
							JOINT Neck
							{
								OFFSET 0.000000 10.314075 0.188496
								CHANNELS 3 Xrotation Yrotation Zrotation
								JOINT Head
								{
									OFFSET 0.000000 7.643700 -2.377400
									CHANNELS 3 Xrotation Yrotation Zrotation
									JOINT HeadTop_End
									{
										OFFSET 0.000000 43.788605 -13.619600
										CHANNELS 3 Xrotation Yrotation Zrotation
										End Site
										{
											OFFSET 0 0 0
										}
									}
								}
							}
						}
						JOINT LeftShoulder_virtual
						{
							OFFSET 0.000000 0.000000 0.000000
							CHANNELS 3 Xrotation Yrotation Zrotation
							JOINT LeftShoulder
							{
								OFFSET 2.196100 4.412489 0.087492
								CHANNELS 3 Xrotation Yrotation Zrotation
								JOINT LeftShoulder_split
								{
									OFFSET 2.196100 4.412489 0.087492
									CHANNELS 3 Xrotation Yrotation Zrotation
									JOINT LeftArm
									{
										OFFSET 8.771219 -2.981674 -0.026999
										CHANNELS 3 Xrotation Yrotation Zrotation
										JOINT LeftForeArm
										{
											OFFSET 8.512804 0.000000 -0.000000
											CHANNELS 3 Xrotation Yrotation Zrotation
											JOINT LeftHand
											{
												OFFSET 18.484802 0.000000 -0.000000
												CHANNELS 3 Xrotation Yrotation Zrotation
												End Site
												{
													OFFSET 0 0 0
												}
											}
										}
									}
								}
							}
						}
						JOINT RightShoulder_virtual
						{
							OFFSET 0.000000 0.000000 0.000000
							CHANNELS 3 Xrotation Yrotation Zrotation
							JOINT RightShoulder
							{
								OFFSET -2.196100 4.412496 0.070690
								CHANNELS 3 Xrotation Yrotation Zrotation
								JOINT RightShoulder_split
								{
									OFFSET -2.196100 4.412496 0.070690
									CHANNELS 3 Xrotation Yrotation Zrotation
									JOINT RightArm
									{
										OFFSET -8.771282 -2.981682 -0.094208
										CHANNELS 3 Xrotation Yrotation Zrotation
										JOINT RightForeArm
										{
											OFFSET -8.494598 0.000000 0.000000
											CHANNELS 3 Xrotation Yrotation Zrotation
											JOINT RightHand
											{
												OFFSET -18.483803 0.000000 0.000001
												CHANNELS 3 Xrotation Yrotation Zrotation
												End Site
												{
													OFFSET 0 0 0
												}
											}
										}
									}
								}
							}
						}
					}
				}
			}
		}
	}
}
MOTION
Frames: 7
Frame Time: 0.03333333
-0.301781 26.564659 0.292934 0.000000 0.000000 0.000000 11.655832 -49.360725 11.305334 -69.352648 16.208307 51.972217 53.929459 -25.144858 2.808926 2.213539 2.700438 -19.144329 -0.941251 -6.111105 0.982466 0.000000 0.000000 0.000000 11.655832 -49.360725 11.305334 -27.355109 4.523084 -38.849126 61.087764 11.597666 -5.601570 -37.636525 -11.607019 32.641932 0.528321 2.970037 1.471441 0.000000 0.000000 0.000000 11.655832 -49.360725 11.305334 10.974532 2.698990 -2.069935 6.100702 5.566549 -4.284687 0.000000 0.000000 0.000000 0.000000 0.000000 0.000000 -5.786932 6.328147 -3.046181 2.318912 9.363315 -0.265300 -4.146747 23.161907 -3.523338 0.000000 0.000000 0.000000 -5.786932 6.328147 -3.046181 -1.875338 -16.181739 -2.870457 0.000000 0.000000 0.000000 -10.644684 2.164771 -45.510654 -22.862380 -25.786269 -15.871685 0.000000 0.000000 0.000000 -5.786932 6.328147 -3.046181 -5.074755 24.344987 1.482907 0.000000 0.000000 0.000000 6.642463 -34.734995 57.610433 -21.032063 44.833867 19.961749 0.000000 0.000000 0.000000 
-0.297796 26.625183 0.229984 0.000000 0.000000 0.000000 11.326538 -50.021925 10.933084 -68.689259 16.279522 52.581276 53.548290 -25.106959 2.751871 2.166782 2.804352 -19.494477 -0.834052 -5.971953 0.888729 0.000000 0.000000 0.000000 11.326538 -50.021925 10.933084 -27.826006 4.605374 -38.431214 61.009476 11.786256 -5.606543 -37.156492 -11.036297 32.351167 0.528307 2.970089 1.471444 0.000000 0.000000 0.000000 11.326538 -50.021925 10.933084 10.929646 2.705046 -2.084113 5.754464 5.620905 -4.465455 0.000000 0.000000 0.000000 0.000000 0.000000 0.000000 -6.114668 6.395258 -3.246992 2.473460 9.737923 -0.469673 -4.007681 23.494369 -3.699868 0.000000 0.000000 0.000000 -6.114668 6.395258 -3.246992 -1.856197 -16.125033 -2.793417 0.000000 0.000000 0.000000 -9.304254 3.610396 -44.990599 -23.777487 -29.920696 -18.575210 0.000000 0.000000 0.000000 -6.114668 6.395258 -3.246992 -5.081640 24.149925 1.470709 0.000000 0.000000 0.000000 7.290188 -35.178934 57.904520 -21.255112 45.591188 20.253125 0.000000 0.000000 0.000000 
-0.302843 26.686405 0.174471 0.000000 0.000000 0.000000 11.133358 -50.707700 10.734519 -67.952514 16.446522 53.076618 53.127356 -25.005697 2.782943 2.050092 2.983712 -19.958170 -0.718843 -5.852729 0.812272 0.000000 0.000000 0.000000 11.133358 -50.707700 10.734519 -28.386370 4.773237 -38.074620 60.960354 11.988264 -5.607300 -36.683416 -10.478612 32.072868 0.528340 2.970064 1.471411 0.000000 0.000000 0.000000 11.133358 -50.707700 10.734519 10.899608 2.686141 -2.087455 5.549812 5.637693 -4.562776 0.000000 0.000000 0.000000 0.000000 0.000000 0.000000 -6.308808 6.419474 -3.362161 2.157819 10.267385 -0.535475 -3.095863 23.970149 -4.101396 0.000000 0.000000 0.000000 -6.308808 6.419474 -3.362161 -1.847872 -16.070633 -2.774166 0.000000 0.000000 0.000000 -8.282022 4.767126 -44.394228 -24.638239 -33.133808 -20.826539 0.000000 0.000000 0.000000 -6.308808 6.419474 -3.362161 -4.969641 24.003426 1.112964 0.000000 0.000000 0.000000 9.818369 -37.442404 58.296354 -23.000355 49.695965 22.598026 0.000000 0.000000 0.000000 
-0.318295 26.746872 0.127258 0.000000 0.000000 0.000000 11.171169 -51.444459 10.782495 -67.250125 16.741425 53.609847 52.625460 -24.901604 2.754389 1.903029 3.190338 -20.430231 -0.634804 -5.753841 0.768718 0.000000 0.000000 0.000000 11.171169 -51.444459 10.782495 -29.121201 5.060828 -37.753488 60.952151 12.204709 -5.609470 -36.198394 -9.923050 31.808666 0.528307 2.970074 1.471433 0.000000 0.000000 0.000000 11.171169 -51.444459 10.782495 10.874668 2.652375 -2.100529 5.370467 5.615224 -4.602945 0.000000 0.000000 0.000000 0.000000 0.000000 0.000000 -6.485338 6.402641 -3.425194 1.587706 10.749029 -0.621675 -2.442080 24.425675 -4.382238 0.000000 0.000000 0.000000 -6.485338 6.402641 -3.425194 -1.832334 -15.909973 -2.693238 0.000000 0.000000 0.000000 -7.601347 5.440243 -43.854558 -25.343799 -35.396397 -22.608138 0.000000 0.000000 0.000000 -6.485338 6.402641 -3.425194 -4.851208 23.775677 0.768379 0.000000 0.000000 0.000000 11.890575 -39.683262 58.329467 -25.251493 53.552703 25.231678 0.000000 0.000000 0.000000 
-0.337793 26.805862 0.083752 0.000000 0.000000 0.000000 11.302010 -52.207883 10.944953 -66.518782 17.104366 54.111269 52.087798 -24.768216 2.730800 1.734130 3.428171 -20.937317 -0.536727 -5.653792 0.710229 0.000000 0.000000 0.000000 11.302010 -52.207883 10.944953 -29.925473 5.403579 -37.455186 60.964260 12.432514 -5.612346 -35.706439 -9.369416 31.553674 0.528341 2.970102 1.471442 0.000000 0.000000 0.000000 11.302010 -52.207883 10.944953 10.844703 2.625948 -2.119018 5.287548 5.515841 -4.597277 0.000000 0.000000 0.000000 0.000000 0.000000 0.000000 -6.569710 6.308096 -3.437966 1.078284 11.188306 -0.459420 -1.508095 24.996788 -5.277519 0.000000 0.000000 0.000000 -6.569710 6.308096 -3.437966 -1.778195 -15.995523 -2.308526 0.000000 0.000000 0.000000 -6.990188 6.173961 -43.710933 -25.996615 -37.298488 -23.847616 0.000000 0.000000 0.000000 -6.569710 6.308096 -3.437966 -4.645096 23.425688 0.307999 0.000000 0.000000 0.000000 13.145904 -41.827532 57.974796 -27.628446 56.724711 27.655067 0.000000 0.000000 0.000000 
-0.354151 26.862270 0.039787 0.000000 0.000000 0.000000 11.389025 -53.056264 11.096438 -65.685724 17.528765 54.533771 51.623502 -25.553071 2.719685 1.525812 4.721977 -21.418456 -0.403512 -5.478147 0.616780 0.000000 0.000000 0.000000 11.389025 -53.056264 11.096438 -30.776856 5.787470 -37.163131 60.995577 12.704183 -5.614995 -35.172158 -8.766149 31.291757 0.528352 2.970098 1.471440 0.000000 0.000000 0.000000 11.389025 -53.056264 11.096438 10.851770 2.602630 -2.105980 5.371031 5.355685 -4.571354 0.000000 0.000000 0.000000 0.000000 0.000000 0.000000 -6.482936 6.146434 -3.429146 0.189760 11.833652 -0.755542 -0.367788 25.516736 -5.789392 0.000000 0.000000 0.000000 -6.482936 6.146434 -3.429146 -1.756444 -15.966117 -2.165179 0.000000 0.000000 0.000000 -6.645654 6.427168 -42.907037 -26.587247 -38.828806 -25.272043 0.000000 0.000000 0.000000 -6.482936 6.146434 -3.429146 -4.319628 23.154951 -0.587311 0.000000 0.000000 0.000000 13.881954 -43.939809 57.597203 -28.818129 58.482081 28.215540 0.000000 0.000000 0.000000 
-0.374338 26.915447 -0.004721 0.000000 0.000000 0.000000 11.693078 -54.214565 11.528033 -64.550205 18.112579 55.101503 51.044650 -25.307067 2.749662 1.121747 5.223442 -22.187981 -0.415295 -5.417732 0.674544 0.000000 0.000000 0.000000 11.693078 -54.214565 11.528033 -32.057592 6.435181 -36.866998 61.143737 13.106987 -5.619475 -34.484403 -7.986934 30.997683 0.528343 2.970092 1.471437 0.000000 0.000000 0.000000 11.693078 -54.214565 11.528033 10.825052 2.584286 -2.131503 5.501345 5.217122 -4.646269 0.000000 0.000000 0.000000 0.000000 0.000000 0.000000 -6.348716 6.027223 -3.508411 -0.681777 12.562946 -1.054645 0.819685 26.088541 -6.243312 0.000000 0.000000 0.000000 -6.348716 6.027223 -3.508411 -1.744018 -15.645168 -2.158805 0.000000 0.000000 0.000000 -6.689827 6.589840 -41.789720 -27.069018 -39.981223 -26.087826 0.000000 0.000000 0.000000 -6.348716 6.027223 -3.508411 -4.018459 22.701416 -1.358585 0.000000 0.000000 0.000000 13.476999 -45.529447 56.379161 -29.535954 59.535911 28.129861 0.000000 0.000000 0.000000 
